<svg version="1.1" id="Capa_1" xmlns="http://www.w3.org/2000/svg" xmlns:xlink="http://www.w3.org/1999/xlink" x="0px" y="0px"
	 viewBox="0 0 512 512" style="enable-background:new 0 0 512 512;" xml:space="preserve">
<g>
	<polygon style="fill:#F29C1F;" points="185.379,414.897 52.966,361.931 114.759,326.621 8.828,247.172 123.586,238.345 
		35.31,26.483 220.69,123.586 335.448,0 335.448,167.724 494.345,123.586 397.241,273.655 503.172,317.793 326.621,414.897 
		326.621,432.552 185.379,432.552 	"/>
	<polygon style="fill:#F0C419;" points="220.69,388.414 174.486,368.684 211.023,347.798 153.132,304.384 200.633,300.729 
		140.579,156.601 231.962,204.473 282.483,150.069 282.483,252.593 374.069,227.151 318.314,313.335 381.281,339.58 291.31,388.414 
			"/>
	<path style="fill:#CBB292;" d="M187.463,414.897h137.074c10.902,0,19.739,8.837,19.739,19.739v42.054H167.724v-42.054
		C167.724,423.734,176.562,414.897,187.463,414.897z"/>
	<path style="fill:#ECF0F1;" d="M229.517,379.586h52.966c4.875,0,8.828,3.952,8.828,8.828v26.483H220.69v-26.483
		C220.69,383.538,224.642,379.586,229.517,379.586z"/>
	<path style="fill:#7F5B53;" d="M8.828,459.034h494.345c4.875,0,8.828,3.952,8.828,8.828v35.31c0,4.875-3.952,8.828-8.828,8.828
		H8.828C3.952,512,0,508.048,0,503.172v-35.31C0,462.987,3.952,459.034,8.828,459.034z"/>
</g>
<g>
</g>
<g>
</g>
<g>
</g>
<g>
</g>
<g>
</g>
<g>
</g>
<g>
</g>
<g>
</g>
<g>
</g>
<g>
</g>
<g>
</g>
<g>
</g>
<g>
</g>
<g>
</g>
<g>
</g>
</svg>
